<?xml version="1.0" encoding="utf-8"?>
<!-- Generator: Adobe Illustrator 24.3.0, SVG Export Plug-In . SVG Version: 6.00 Build 0)  -->
<svg version="1.1" id="Layer_1" xmlns="http://www.w3.org/2000/svg" xmlns:xlink="http://www.w3.org/1999/xlink" x="0px" y="0px"
	 viewBox="0 0 1000 1000" style="enable-background:new 0 0 1000 1000;" xml:space="preserve">
<style type="text/css">
	.st0{clip-path:url(#SVGID_2_);}
	.st1{fill:#04316A;}
	.st2{opacity:0.5;}
	.st3{fill:url(#SVGID_3_);}
	.st4{fill:url(#SVGID_4_);}
	.st5{fill:url(#SVGID_5_);}
</style>
<g>
	<defs>
		
			<rect id="SVGID_1_" x="-2.24" y="0" transform="matrix(-1.836970e-16 1 -1 -1.836970e-16 997.7614 2.2386)" width="1000" height="1000"/>
	</defs>
	<clipPath id="SVGID_2_">
		<use xlink:href="#SVGID_1_"  style="overflow:visible;"/>
	</clipPath>
	<g class="st0">
		<g>
			<g>
				
					<rect x="-2.24" y="0" transform="matrix(-1.836970e-16 1 -1 -1.836970e-16 997.7614 2.2386)" class="st1" width="1000" height="1000"/>
			</g>
			<g class="st2">
				<linearGradient id="SVGID_3_" gradientUnits="userSpaceOnUse" x1="1037.7374" y1="-126.3042" x2="80.9167" y2="664.5635">
					<stop  offset="0" style="stop-color:#0F4C83"/>
					<stop  offset="1" style="stop-color:#003566"/>
				</linearGradient>
				<path class="st3" d="M564.42,994.08c12.55-35.76,18.68-77.59,8.21-116.26c-5.4-19.96-14.96-40.58-26.86-52.97
					c-9.77-10.18-21.54-14.97-32.98-19.01c-20.21-7.13-45.69-11.63-57.95-40.27c-13.34-31.15-3.28-72.85,7.23-102.33
					c13.14-36.85,31.33-68.99,48.6-101.53c18.09-34.07,33.97-71.23,41.98-113.52c4.37-23.07,6.11-47.51,3.26-71.24
					c-2.99-24.87-10.99-47.78-22.22-66.52c-19.06-31.81-48.06-45.1-75.7-48.1c-28.26-3.07-56.82,3.18-84.2,13.45
					c-39.94,14.99-77.97,43.94-119.82,45.75c-17.2,0.74-36.51-4.07-47.72-25.67c-10.94-21.08-12.93-54.61-6.66-79.23
					c6.34-24.94,20.98-42.19,35.98-55.03c18.04-15.45,37.71-26.13,56.97-37.56c17.87-10.61,36.82-21.35,51.98-39.55
					c7.17-8.61,12.63-19.23,16.78-31.51c4.08-12.06,6.65-26.38,3.31-39.52c-1.31-5.15-3.28-9.6-5.72-13.46H-2.24v1000h564.5
					C562.99,998.04,563.72,996.07,564.42,994.08z"/>
			</g>
			<g class="st2">
				<linearGradient id="SVGID_4_" gradientUnits="userSpaceOnUse" x1="487.4929" y1="854.9717" x2="1065.1951" y2="235.5075">
					<stop  offset="0" style="stop-color:#0F4C83"/>
					<stop  offset="1" style="stop-color:#003566"/>
				</linearGradient>
				<path class="st4" d="M629.23,6.48c-4.39,40.42-4.1,113.51,21.58,141.46c16.65,18.12,35.51,14.89,53.45,3.76
					c42.58-26.43,67.12-59.79,115.21-69.54c81.02-16.43,85.3,99.92,24.54,156.43c-21.17,19.69-41.94,39.69-63.55,58.21
					c-95.1,81.47-234.27,250.86-171.66,428.48c24.16,68.54,75.35,109.28,129.65,92.74c47.85-14.58,182.11-154.54,200.98-13.9
					c4.72,35.19-6.08,72.82-16.54,104.08c-11.73,35.08-26.61,67.91-42.28,99.79h122.07c0,0,0-1011.59,0-1011.6
					c0,0.18-343.99-0.16-372.15-0.2C630.03-0.41,629.6,3.03,629.23,6.48z"/>
			</g>
			<g>
				
					<linearGradient id="SVGID_5_" gradientUnits="userSpaceOnUse" x1="-910.9139" y1="221.9646" x2="-1088.635" y2="-311.2004" gradientTransform="matrix(-1 0 0 -1 -1035.7303 432.0744)">
					<stop  offset="0" style="stop-color:#0F4C83"/>
					<stop  offset="1" style="stop-color:#003566"/>
				</linearGradient>
				<path class="st5" d="M52.16,1007.78c-9.7-19.86-12.42-47.23-12.29-70.49c0.21-39.53,12.4-72.29,30.89-101.27
					c16.91-26.51,36.67-49.64,51.89-78.24c13.3-24.98,23.05-54.32,27.47-84.89c4.33-29.94,3.19-62.77-8.88-89.09
					c-14.51-31.67-40.44-42.64-64.55-54.01c-23.72-11.19-42.91-27.06-56.11-57.83c-11.37-26.52-17.39-57.3-18.5-88.1
					c-0.64-17.73,0.49-35.61,3.28-52.84h-6.41c0,0,0,676.79,0,676.79C-1.05,1007.77,21.08,1007.77,52.16,1007.78z"/>
			</g>
		</g>
	</g>
</g>
</svg>
