<?xml version="1.0" encoding="utf-8"?>
<!-- Generator: Adobe Illustrator 24.3.0, SVG Export Plug-In . SVG Version: 6.00 Build 0)  -->
<svg version="1.1" xmlns="http://www.w3.org/2000/svg" xmlns:xlink="http://www.w3.org/1999/xlink" x="0px" y="0px"
	 viewBox="0 0 750 500" style="enable-background:new 0 0 750 500;" xml:space="preserve">
<style type="text/css">
	.st0{fill:#F5F5F5;}
	.st1{fill:#E0E0E0;}
	.st2{fill:#EBEBEB;}
	.st3{fill:#FAFAFA;}
	.st4{display:none;}
	.st5{display:inline;fill:#F5F5F5;}
	.st6{fill:#FFFFFF;}
	.st7{fill:#263238;}
	.st8{fill:#04316A;}
	.st9{fill:#455A64;}
	.st10{fill:#FFBE9D;}
	.st11{fill:#EB996E;}
	.st12{opacity:0.6;}
	.st13{opacity:0.2;}
	.st14{fill:#E8505B;}
</style>
<g id="Background_Complete">
	<g>
		
			<rect x="242.4" y="107.14" transform="matrix(0.9775 -0.2111 0.2111 0.9775 -24.7059 60.4454)" class="st0" width="56.7" height="77.59"/>
	</g>
	<g>
		<g>
			<rect x="365.24" y="70.85" class="st0" width="188.89" height="122.83"/>
		</g>
		<g>
			<g>
				
					<ellipse transform="matrix(0.2323 -0.9726 0.9726 0.2323 229.2921 544.6603)" class="st1" cx="459.68" cy="127.08" rx="25.7" ry="25.7"/>
			</g>
			<g>
				<polygon class="st0" points="468.32,127.08 461.61,130.95 454.89,134.83 454.89,127.08 454.89,119.33 461.61,123.2 				"/>
			</g>
		</g>
		<g>
			<rect x="365.24" y="171.62" class="st1" width="188.89" height="22.07"/>
		</g>
		<g>
			<polygon class="st0" points="383.59,182.65 380.87,184.23 378.14,185.8 378.14,182.65 378.14,179.51 380.87,181.08 			"/>
		</g>
		<g>
			<rect x="399.25" y="182.15" class="st0" width="139.33" height="1"/>
		</g>
		<g>
			<path class="st0" d="M402.07,182.65c0,1.15-0.93,2.08-2.08,2.08s-2.08-0.93-2.08-2.08s0.93-2.08,2.08-2.08
				S402.07,181.51,402.07,182.65z"/>
		</g>
	</g>
	<g>
		<g>
			<g>
				<g>
					<path class="st0" d="M686.83,333.6H504.42c-3.03,0-5.49-2.46-5.49-5.49v-163.3c0-3.03,2.46-5.49,5.49-5.49h182.41
						c3.03,0,5.49,2.46,5.49,5.49v163.3C692.32,331.14,689.86,333.6,686.83,333.6z"/>
				</g>
				<g>
					<path class="st2" d="M692.32,178.78H498.94v-13.05c0-3.54,2.87-6.41,6.41-6.41h180.56c3.54,0,6.41,2.87,6.41,6.41V178.78z"/>
				</g>
				<g>
					<circle class="st3" cx="510.74" cy="169.08" r="1.53"/>
				</g>
				<g>
					<path class="st3" d="M521.42,169.08c0,0.84-0.68,1.53-1.53,1.53c-0.84,0-1.53-0.68-1.53-1.53c0-0.84,0.68-1.53,1.53-1.53
						C520.73,167.56,521.42,168.24,521.42,169.08z"/>
				</g>
				<g>
					<circle class="st3" cx="529.04" cy="169.08" r="1.53"/>
				</g>
			</g>
			<g>
				<rect x="596.04" y="194.47" class="st3" width="73.02" height="2.64"/>
			</g>
			<g>
				<rect x="596.04" y="205.34" class="st3" width="73.02" height="2.64"/>
			</g>
			<g>
				<rect x="596.04" y="216.22" class="st3" width="73.02" height="2.64"/>
			</g>
			<g>
				<rect x="596.04" y="227.1" class="st3" width="73.02" height="2.64"/>
			</g>
			<g>
				<rect x="596.04" y="237.97" class="st3" width="36.51" height="2.64"/>
			</g>
			<g>
				
					<rect x="518.49" y="259.36" transform="matrix(-1 -1.224647e-16 1.224647e-16 -1 1109.9927 521.3687)" class="st3" width="73.02" height="2.64"/>
			</g>
			<g>
				
					<rect x="518.49" y="270.24" transform="matrix(-1 -1.224647e-16 1.224647e-16 -1 1109.9927 543.1197)" class="st3" width="73.02" height="2.64"/>
			</g>
			<g>
				
					<rect x="518.49" y="281.11" transform="matrix(-1 -1.224647e-16 1.224647e-16 -1 1109.9927 564.8708)" class="st3" width="73.02" height="2.64"/>
			</g>
			<g>
				
					<rect x="518.49" y="291.99" transform="matrix(-1 -1.224647e-16 1.224647e-16 -1 1109.9927 586.6219)" class="st3" width="73.02" height="2.64"/>
			</g>
			<g>
				
					<rect x="555" y="302.86" transform="matrix(-1 -1.224647e-16 1.224647e-16 -1 1146.5034 608.373)" class="st3" width="36.51" height="2.64"/>
			</g>
		</g>
		<g>
			<g>
				<rect x="604.12" y="256.44" class="st3" width="62.49" height="51.99"/>
			</g>
			<g>
				<polygon class="st2" points="604.02,292.73 622.48,279.79 635.37,288.71 655.63,271.56 666.61,282.44 666.61,308.43 
					604.12,308.43 				"/>
			</g>
			<g>
				<circle class="st2" cx="636.45" cy="271.56" r="5.23"/>
			</g>
		</g>
		<g>
			<g>
				<rect x="518.49" y="192.87" class="st3" width="62.49" height="51.99"/>
			</g>
			<g>
				<polygon class="st2" points="518.38,229.16 536.84,216.22 549.73,225.13 569.99,207.99 580.97,218.86 580.97,244.86 
					518.49,244.86 				"/>
			</g>
			<g>
				<circle class="st2" cx="550.81" cy="207.99" r="5.23"/>
			</g>
		</g>
	</g>
	<g>
		<g>
			<g>
				<g>
					<path class="st0" d="M286.63,366.55H63.29c-2.57,0-4.65-2.08-4.65-4.65V240.54h232.64V361.9
						C291.28,364.47,289.2,366.55,286.63,366.55z"/>
				</g>
				<g>
					<rect x="58.64" y="240.54" class="st2" width="232.64" height="23.41"/>
				</g>
				<g>
					<circle class="st3" cx="72.83" cy="252.29" r="1.84"/>
				</g>
				<g>
					<circle class="st3" cx="83.84" cy="252.29" r="1.84"/>
				</g>
				<g>
					<circle class="st3" cx="94.85" cy="252.29" r="1.84"/>
				</g>
			</g>
			<g>
				<rect x="175.46" y="282.83" class="st2" width="87.85" height="3.18"/>
			</g>
			<g>
				<rect x="175.46" y="295.91" class="st2" width="87.85" height="3.18"/>
			</g>
			<g>
				<rect x="175.46" y="308.99" class="st2" width="87.85" height="3.18"/>
			</g>
			<g>
				<rect x="175.46" y="322.08" class="st2" width="87.85" height="3.18"/>
			</g>
			<g>
				<rect x="175.46" y="335.16" class="st2" width="43.92" height="3.18"/>
			</g>
		</g>
		<g>
			<g>
				<rect x="77.99" y="280.6" class="st3" width="75.17" height="62.55"/>
			</g>
			<g>
				<polygon class="st2" points="77.86,324.26 100.08,308.69 115.58,319.42 139.95,298.79 153.16,311.87 153.16,343.15 
					77.99,343.15 				"/>
			</g>
			<g>
				<path class="st2" d="M123.17,298.79c0,3.48-2.82,6.3-6.3,6.3c-3.48,0-6.3-2.82-6.3-6.3c0-3.48,2.82-6.3,6.3-6.3
					C120.35,292.49,123.17,295.31,123.17,298.79z"/>
			</g>
		</g>
	</g>
</g>
<g id="Background_Simple" class="st4">
	<path class="st5" d="M343.33,213.01c-31.27,7.58-48.61-0.95-76.45-8.29c-27.84-7.34-58.66-14.02-84.37-1.06
		c-30.45,15.34-42.65,54.13-38.15,87.93c4.37,32.8,40.71,62.01,69.62,78.11c21.83,12.16,47.56,14.79,72.5,16.33
		c67.71,4.18,119.65,4.28,182.28-21.82c62.63-26.09,117.06-79.74,128.69-146.58c4.91-28.24,1.41-59.34-16.31-81.88
		c-22.77-28.98-65.45-37.46-100.51-26.1c-35.06,11.36-62.77,39.4-81.29,71.26C386.94,202.29,366.91,205.72,343.33,213.01"/>
</g>
<g id="Document">
	<g>
		<g>
			<g>
				
					<rect x="235.41" y="120.83" transform="matrix(0.9775 -0.2111 0.2111 0.9775 -27.754 59.2777)" class="st6" width="56.7" height="77.59"/>
			</g>
			<g>
				<g>
					<path class="st7" d="M299.65,191.56c0,0-0.04-0.13-0.09-0.37c-0.06-0.26-0.14-0.61-0.24-1.07c-0.21-0.96-0.52-2.34-0.92-4.14
						c-0.8-3.62-1.96-8.89-3.43-15.56c-2.91-13.34-7.04-32.26-11.92-54.65l0.28,0.18c-16.69,3.61-35.53,7.69-55.41,11.99l-0.01,0
						l0.2-0.31c6.1,28.33,11.75,54.56,16.33,75.85l-0.25-0.16c16.78-3.58,30.61-6.53,40.27-8.58c4.83-1.02,8.61-1.82,11.21-2.36
						c1.28-0.27,2.27-0.47,2.95-0.61C299.3,191.62,299.65,191.56,299.65,191.56s-0.32,0.09-0.98,0.23
						c-0.67,0.15-1.64,0.37-2.91,0.65c-2.58,0.57-6.34,1.4-11.14,2.46c-9.68,2.12-23.54,5.15-40.36,8.83l-0.21,0.05l-0.05-0.21
						c-4.61-21.28-10.29-47.5-16.43-75.83l-0.06-0.25l0.25-0.06l0.01,0c19.88-4.28,38.73-8.35,55.42-11.94l0.23-0.05l0.05,0.23
						c4.8,22.47,8.86,41.46,11.73,54.85c1.41,6.66,2.52,11.92,3.29,15.54c0.37,1.78,0.66,3.16,0.86,4.1
						c0.09,0.45,0.16,0.8,0.21,1.05C299.64,191.45,299.65,191.56,299.65,191.56z"/>
				</g>
			</g>
		</g>
		<g>
			<g>
				<path class="st7" d="M265.04,135.61c0.03,0.14-5.97,1.56-13.41,3.16c-7.44,1.61-13.49,2.79-13.52,2.65
					c-0.03-0.14,5.97-1.56,13.41-3.16C258.96,136.66,265.01,135.47,265.04,135.61z"/>
			</g>
		</g>
		<g>
			<g>
				<path class="st7" d="M281.03,139.06c0.03,0.14-9.24,2.26-20.69,4.74c-11.46,2.48-20.77,4.37-20.8,4.23
					c-0.03-0.14,9.23-2.26,20.7-4.74C271.68,140.81,281,138.92,281.03,139.06z"/>
			</g>
		</g>
		<g>
			<g>
				<path class="st7" d="M282.51,145.93c0.03,0.14-9.24,2.26-20.69,4.74c-11.46,2.48-20.77,4.37-20.8,4.23
					c-0.03-0.14,9.23-2.26,20.7-4.74C273.17,147.69,282.48,145.79,282.51,145.93z"/>
			</g>
		</g>
		<g>
			<g>
				<path class="st7" d="M284,152.81c0.03,0.14-9.24,2.26-20.69,4.74c-11.46,2.48-20.77,4.37-20.81,4.23
					c-0.03-0.14,9.23-2.26,20.69-4.74C274.65,154.56,283.97,152.67,284,152.81z"/>
			</g>
		</g>
		<g>
			<g>
				<path class="st7" d="M285.48,159.68c0.03,0.14-9.24,2.26-20.69,4.74c-11.46,2.48-20.77,4.37-20.81,4.23
					c-0.03-0.14,9.23-2.26,20.69-4.74C276.14,161.44,285.45,159.54,285.48,159.68z"/>
			</g>
		</g>
		<g>
			<g>
				<path class="st7" d="M286.97,166.56c0.03,0.14-9.24,2.26-20.69,4.74c-11.46,2.48-20.77,4.37-20.81,4.23
					c-0.03-0.14,9.23-2.26,20.69-4.74C277.62,168.31,286.94,166.42,286.97,166.56z"/>
			</g>
		</g>
		<g>
			<g>
				<path class="st7" d="M288.45,173.43c0.03,0.14-9.24,2.26-20.69,4.74c-11.46,2.48-20.77,4.37-20.81,4.23
					c-0.03-0.14,9.23-2.26,20.69-4.74C279.11,175.19,288.42,173.29,288.45,173.43z"/>
			</g>
		</g>
		<g>
			<g>
				<path class="st7" d="M270.75,184.45c0.03,0.14-4.94,1.33-11.1,2.66c-6.16,1.33-11.18,2.29-11.21,2.15
					c-0.03-0.14,4.94-1.33,11.1-2.66C265.7,185.28,270.72,184.31,270.75,184.45z"/>
			</g>
		</g>
	</g>
</g>
<g id="Pointer">
	<g>
		<polygon class="st8" points="542.57,309.85 556.75,346.26 562.67,336.71 570.86,347.47 580.63,338.18 571.32,329.2 579.91,323.39 
					"/>
	</g>
	<g>
		<g>
			<path class="st7" d="M537.23,315.23c0.08,0.12-2.24,1.73-5.17,3.59c-2.93,1.86-5.37,3.27-5.45,3.15
				c-0.08-0.12,2.24-1.73,5.17-3.59C534.71,316.52,537.15,315.11,537.23,315.23z"/>
		</g>
	</g>
	<g>
		<g>
			<path class="st7" d="M538.33,307.89c-0.02,0.07-0.89-0.16-2.28-0.6c-1.38-0.44-3.28-1.12-5.33-1.95
				c-2.06-0.83-3.89-1.65-5.2-2.27c-1.31-0.62-2.11-1.04-2.08-1.1c0.03-0.07,0.88,0.23,2.23,0.77c1.53,0.62,3.3,1.33,5.25,2.13
				c1.96,0.78,3.73,1.48,5.26,2.09C537.53,307.48,538.36,307.82,538.33,307.89z"/>
		</g>
	</g>
	<g>
		<g>
			<path class="st7" d="M542.61,291.36c0.07-0.01,0.27,0.75,0.52,2.01c0.25,1.25,0.53,3,0.77,4.93c0.24,1.94,0.39,3.7,0.47,4.97
				c0.07,1.28,0.07,2.07-0.01,2.07c-0.15,0.01-0.49-3.12-0.98-6.98C542.9,294.51,542.46,291.38,542.61,291.36z"/>
		</g>
	</g>
	<g>
		<g>
			<path class="st7" d="M562.24,299.51c0.06,0.15-2.57,1.28-5.52,3.17c-2.96,1.89-5.3,3.55-5.39,3.42c-0.04-0.06,0.5-0.53,1.41-1.25
				c0.92-0.71,2.2-1.67,3.71-2.61C559.44,300.32,562.2,299.38,562.24,299.51z"/>
		</g>
	</g>
</g>
<g id="Plus">
	<g>
		<g>
			<g>
				<path class="st7" d="M212.61,316.05c-0.09,0.01,0.03-1.62-0.67-4.4c-0.33-1.39-0.99-3.04-2.02-4.78
					c-1.04-1.74-2.55-3.55-4.59-5.08c-2.03-1.52-4.6-2.81-7.56-3.33c-2.94-0.5-6.25-0.41-9.41,0.79c-1.59,0.55-3.12,1.39-4.53,2.44
					c-0.73,0.5-1.36,1.12-2.03,1.73c-0.6,0.67-1.23,1.32-1.75,2.07c-2.2,2.93-3.44,6.69-3.48,10.57c0.03,3.88,1.27,7.64,3.48,10.57
					c0.52,0.76,1.15,1.41,1.75,2.07c0.67,0.6,1.3,1.23,2.03,1.73c1.41,1.05,2.94,1.89,4.53,2.44c3.15,1.2,6.47,1.3,9.41,0.79
					c2.96-0.52,5.52-1.81,7.56-3.33c2.04-1.54,3.54-3.35,4.59-5.08c1.04-1.74,1.7-3.39,2.02-4.78
					C212.64,317.66,212.51,316.04,212.61,316.05c0.01,0,0.01,0.1,0.01,0.29c0,0.22-0.01,0.51-0.02,0.87c0,0.38-0.02,0.85-0.12,1.4
					c-0.07,0.55-0.15,1.19-0.35,1.89c-0.3,1.42-0.94,3.1-1.97,4.88c-1.04,1.78-2.55,3.64-4.61,5.23c-2.06,1.57-4.67,2.91-7.7,3.47
					c-3,0.53-6.4,0.45-9.65-0.77c-1.63-0.56-3.21-1.41-4.66-2.49c-0.75-0.51-1.4-1.15-2.09-1.77c-0.62-0.68-1.27-1.35-1.81-2.13
					c-2.27-3.01-3.55-6.88-3.59-10.87c0.04-3.99,1.32-7.86,3.59-10.87c0.53-0.78,1.19-1.45,1.81-2.13c0.69-0.62,1.34-1.26,2.09-1.77
					c1.45-1.08,3.03-1.93,4.66-2.49c3.25-1.22,6.64-1.3,9.65-0.77c3.03,0.55,5.64,1.89,7.7,3.47c2.07,1.59,3.58,3.45,4.61,5.23
					c1.03,1.79,1.67,3.47,1.97,4.88c0.2,0.7,0.27,1.34,0.35,1.89c0.09,0.55,0.12,1.02,0.12,1.4c0.01,0.36,0.01,0.64,0.02,0.87
					C212.62,315.95,212.61,316.05,212.61,316.05z"/>
			</g>
		</g>
		<g>
			<g>
				<path class="st7" d="M194.46,325.16c-0.14,0-0.26-4.08-0.26-9.11c0-5.03,0.12-9.11,0.26-9.11c0.14,0,0.26,4.08,0.26,9.11
					C194.73,321.08,194.61,325.16,194.46,325.16z"/>
			</g>
		</g>
		<g>
			<g>
				<path class="st7" d="M203.57,316.05c0,0.14-4.08,0.26-9.11,0.26c-5.03,0-9.11-0.12-9.11-0.26s4.08-0.26,9.11-0.26
					C199.5,315.79,203.57,315.9,203.57,316.05z"/>
			</g>
		</g>
	</g>
</g>
<g id="Search_Engine">
	<g>
		<g>
			<g>
				<path class="st7" d="M490.95,374.69c-0.12,0.08-12.68-19.35-28.05-43.39c-15.38-24.05-27.74-43.59-27.62-43.67
					c0.12-0.08,12.68,19.35,28.06,43.39C478.71,355.06,491.07,374.61,490.95,374.69z"/>
			</g>
		</g>
		<g>
			<g>
				<g>
					<circle class="st6" cx="496.41" cy="387.96" r="29.15"/>
				</g>
				<g>
					<g>
						<path class="st7" d="M467.26,387.96c0,0-0.01-0.16,0-0.47c0.01-0.34,0.03-0.8,0.04-1.39c0.01-0.31,0.02-0.65,0.04-1.02
							c0.03-0.38,0.11-0.78,0.16-1.23c0.13-0.89,0.24-1.91,0.57-3.03c0.49-2.27,1.53-4.96,3.18-7.82c1.67-2.84,4.09-5.82,7.41-8.36
							c3.3-2.51,7.49-4.65,12.33-5.53c1.21-0.18,2.44-0.43,3.71-0.44c0.63-0.02,1.27-0.09,1.91-0.08c0.64,0.03,1.29,0.06,1.94,0.09
							c0.66,0.01,1.31,0.1,1.96,0.21c0.65,0.11,1.32,0.18,1.98,0.32c1.3,0.35,2.64,0.61,3.92,1.14c1.32,0.42,2.56,1.07,3.84,1.68
							c0.62,0.34,1.22,0.73,1.83,1.09c0.63,0.35,1.2,0.78,1.78,1.22c1.2,0.82,2.24,1.84,3.34,2.83c0.99,1.09,2.03,2.16,2.89,3.4
							c1.75,2.43,3.28,5.13,4.21,8.1c0.96,2.95,1.48,6.09,1.52,9.28c-0.04,3.19-0.56,6.33-1.52,9.28c-0.93,2.97-2.46,5.67-4.21,8.1
							c-0.85,1.24-1.89,2.31-2.89,3.41c-1.1,0.99-2.14,2.01-3.34,2.83c-0.58,0.44-1.15,0.87-1.78,1.22
							c-0.62,0.36-1.21,0.75-1.83,1.09c-1.28,0.61-2.52,1.26-3.84,1.68c-1.28,0.53-2.62,0.79-3.92,1.14
							c-0.66,0.13-1.32,0.21-1.98,0.32c-0.65,0.11-1.31,0.2-1.96,0.21c-0.65,0.03-1.3,0.06-1.94,0.09
							c-0.64,0.01-1.28-0.05-1.91-0.08c-1.27-0.01-2.5-0.26-3.71-0.44c-4.84-0.88-9.02-3.02-12.33-5.53
							c-3.31-2.53-5.74-5.51-7.41-8.36c-1.65-2.86-2.69-5.55-3.18-7.82c-0.32-1.12-0.44-2.15-0.57-3.03
							c-0.06-0.44-0.13-0.85-0.16-1.22c-0.01-0.37-0.03-0.72-0.04-1.02c-0.02-0.59-0.03-1.05-0.04-1.39
							C467.25,388.12,467.26,387.96,467.26,387.96s0.03,0.16,0.05,0.47c0.02,0.33,0.05,0.79,0.1,1.38c0.02,0.31,0.04,0.65,0.06,1.02
							c0.04,0.37,0.12,0.78,0.19,1.22c0.14,0.88,0.27,1.9,0.61,3c0.52,2.25,1.57,4.9,3.23,7.72c1.68,2.8,4.09,5.73,7.38,8.21
							c3.28,2.46,7.41,4.55,12.18,5.4c1.2,0.17,2.41,0.42,3.66,0.42c0.62,0.02,1.25,0.08,1.89,0.07c0.63-0.03,1.27-0.07,1.91-0.1
							c0.65-0.01,1.29-0.1,1.93-0.21c0.64-0.11,1.3-0.18,1.95-0.32c1.28-0.35,2.6-0.61,3.85-1.13c1.3-0.42,2.52-1.06,3.77-1.66
							c0.61-0.33,1.2-0.72,1.8-1.08c0.62-0.34,1.18-0.77,1.74-1.2c1.17-0.81,2.2-1.82,3.28-2.79c0.97-1.08,1.99-2.13,2.83-3.35
							c1.72-2.39,3.22-5.04,4.13-7.96c0.94-2.9,1.45-5.98,1.49-9.12c-0.04-3.13-0.55-6.21-1.49-9.11c-0.91-2.92-2.41-5.57-4.13-7.96
							c-0.84-1.22-1.86-2.27-2.83-3.35c-1.08-0.97-2.1-1.98-3.28-2.79c-0.56-0.43-1.13-0.86-1.74-1.2c-0.6-0.36-1.19-0.74-1.8-1.08
							c-1.25-0.6-2.47-1.24-3.77-1.66c-1.26-0.53-2.58-0.78-3.85-1.13c-0.65-0.13-1.3-0.21-1.95-0.32c-0.64-0.11-1.29-0.2-1.93-0.21
							c-0.64-0.03-1.28-0.07-1.91-0.1c-0.63-0.01-1.26,0.05-1.89,0.07c-1.25,0.01-2.46,0.25-3.66,0.42
							c-4.77,0.84-8.91,2.94-12.18,5.4c-3.29,2.48-5.7,5.41-7.38,8.21c-1.66,2.81-2.72,5.47-3.24,7.72c-0.34,1.11-0.47,2.13-0.61,3
							c-0.07,0.44-0.15,0.84-0.19,1.22c-0.02,0.37-0.04,0.71-0.06,1.02c-0.04,0.59-0.07,1.05-0.1,1.38
							C467.28,387.8,467.26,387.96,467.26,387.96z"/>
					</g>
				</g>
			</g>
			<g>
				<g>
					<polygon class="st7" points="488.46,377.25 484.47,400.05 496.41,398.41 508.35,400.05 503.54,377.25 					"/>
				</g>
				<g>
					<g>
						<path class="st7" d="M501.45,377.55c-0.09,0.03-0.33-0.81-0.96-2.02c-0.32-0.6-0.77-1.28-1.43-1.85
							c-0.34-0.27-0.73-0.51-1.17-0.68c-0.44-0.15-0.93-0.24-1.43-0.25c-1.02-0.01-2,0.18-2.72,0.66c-0.73,0.47-1.19,1.14-1.49,1.74
							c-0.6,1.22-0.8,2.08-0.89,2.05c-0.05-0.01,0.02-0.88,0.55-2.21c0.28-0.65,0.74-1.43,1.56-1.99c0.81-0.57,1.9-0.79,2.99-0.78
							c0.56,0.01,1.1,0.11,1.6,0.29c0.49,0.2,0.93,0.48,1.3,0.79c0.72,0.66,1.16,1.41,1.45,2.05
							C501.39,376.66,501.5,377.53,501.45,377.55z"/>
					</g>
				</g>
			</g>
		</g>
	</g>
	<g>
		<g>
			<g>
				<path class="st7" d="M380.09,376.64c-0.14,0-0.26-20.07-0.26-44.83c0-24.76,0.12-44.83,0.26-44.83c0.14,0,0.26,20.07,0.26,44.83
					C380.35,356.57,380.23,376.64,380.09,376.64z"/>
			</g>
		</g>
		<g>
			<g>
				<g>
					<circle class="st6" cx="379.49" cy="388.61" r="29.15"/>
				</g>
				<g>
					<g>
						<path class="st7" d="M350.34,388.61c0,0-0.01-0.16,0-0.47c0.01-0.34,0.03-0.8,0.04-1.39c0.01-0.31,0.02-0.65,0.04-1.02
							c0.03-0.38,0.11-0.78,0.16-1.23c0.13-0.89,0.24-1.91,0.57-3.03c0.49-2.27,1.53-4.96,3.18-7.82c1.67-2.84,4.09-5.82,7.41-8.36
							c3.3-2.51,7.49-4.65,12.33-5.53c1.21-0.18,2.44-0.43,3.71-0.44c0.63-0.02,1.27-0.09,1.91-0.08c0.64,0.03,1.29,0.06,1.94,0.09
							c0.66,0.01,1.31,0.1,1.96,0.21c0.65,0.11,1.32,0.18,1.98,0.32c1.3,0.35,2.64,0.61,3.92,1.14c1.32,0.42,2.56,1.07,3.84,1.68
							c0.62,0.34,1.22,0.73,1.83,1.09c0.63,0.35,1.2,0.78,1.78,1.22c1.2,0.82,2.24,1.84,3.34,2.83c0.99,1.09,2.03,2.16,2.89,3.4
							c1.75,2.43,3.28,5.13,4.21,8.1c0.96,2.95,1.48,6.09,1.52,9.28c-0.04,3.19-0.56,6.33-1.52,9.28c-0.93,2.97-2.46,5.67-4.21,8.1
							c-0.85,1.24-1.89,2.31-2.89,3.41c-1.1,0.99-2.14,2.01-3.34,2.83c-0.58,0.44-1.15,0.87-1.78,1.22
							c-0.62,0.36-1.21,0.75-1.83,1.09c-1.28,0.61-2.52,1.26-3.84,1.68c-1.28,0.53-2.62,0.79-3.92,1.14
							c-0.66,0.13-1.32,0.21-1.98,0.32c-0.65,0.11-1.31,0.2-1.96,0.21c-0.65,0.03-1.3,0.06-1.94,0.1c-0.64,0.01-1.28-0.05-1.91-0.08
							c-1.27-0.01-2.5-0.26-3.71-0.44c-4.84-0.88-9.02-3.02-12.33-5.53c-3.31-2.53-5.74-5.51-7.41-8.36
							c-1.65-2.86-2.69-5.55-3.18-7.82c-0.32-1.12-0.44-2.15-0.57-3.03c-0.06-0.44-0.13-0.85-0.16-1.22
							c-0.01-0.37-0.03-0.72-0.04-1.02c-0.02-0.59-0.03-1.05-0.04-1.39C350.33,388.77,350.34,388.61,350.34,388.61
							s0.03,0.16,0.05,0.47c0.02,0.33,0.05,0.79,0.1,1.38c0.02,0.31,0.04,0.65,0.06,1.02c0.04,0.37,0.12,0.78,0.19,1.22
							c0.14,0.88,0.27,1.9,0.61,3c0.52,2.25,1.57,4.9,3.23,7.72c1.68,2.8,4.09,5.73,7.38,8.21c3.28,2.46,7.41,4.55,12.18,5.4
							c1.2,0.17,2.41,0.42,3.66,0.42c0.62,0.02,1.25,0.08,1.89,0.07c0.63-0.03,1.27-0.07,1.91-0.1c0.65-0.01,1.29-0.1,1.93-0.21
							c0.64-0.11,1.3-0.18,1.95-0.32c1.28-0.35,2.6-0.61,3.86-1.13c1.3-0.42,2.52-1.06,3.77-1.66c0.61-0.33,1.2-0.72,1.8-1.08
							c0.62-0.34,1.18-0.77,1.74-1.2c1.18-0.81,2.2-1.82,3.28-2.79c0.97-1.08,1.99-2.13,2.83-3.35c1.72-2.39,3.22-5.04,4.13-7.96
							c0.94-2.9,1.45-5.98,1.49-9.12c-0.04-3.13-0.55-6.21-1.49-9.11c-0.91-2.92-2.41-5.57-4.13-7.96
							c-0.84-1.22-1.86-2.27-2.83-3.35c-1.08-0.97-2.1-1.98-3.28-2.79c-0.56-0.43-1.13-0.86-1.74-1.2c-0.6-0.36-1.19-0.74-1.8-1.08
							c-1.25-0.6-2.47-1.24-3.77-1.66c-1.26-0.53-2.58-0.78-3.85-1.13c-0.65-0.13-1.3-0.21-1.95-0.32c-0.64-0.11-1.29-0.2-1.93-0.21
							c-0.64-0.03-1.28-0.07-1.91-0.1c-0.63-0.01-1.26,0.05-1.89,0.07c-1.25,0.01-2.46,0.25-3.66,0.42
							c-4.77,0.84-8.91,2.94-12.18,5.4c-3.29,2.48-5.7,5.41-7.38,8.21c-1.66,2.81-2.72,5.47-3.24,7.72c-0.34,1.11-0.47,2.13-0.61,3
							c-0.07,0.44-0.15,0.84-0.19,1.22c-0.02,0.37-0.04,0.71-0.06,1.02c-0.04,0.59-0.07,1.05-0.1,1.38
							C350.37,388.45,350.34,388.61,350.34,388.61z"/>
					</g>
				</g>
			</g>
			<g>
				<polygon class="st7" points="379.49,375.55 366.85,387.04 366.85,401.61 376.69,401.61 376.69,392.88 382.96,392.88 
					382.96,401.61 392.14,401.61 392.14,387.04 				"/>
			</g>
		</g>
	</g>
	<g>
		<g>
			<g>
				<path class="st7" d="M267.25,375.7c-0.12-0.08,12.43-19.92,28.03-44.32c15.61-24.4,28.35-44.12,28.47-44.04
					c0.12,0.08-12.43,19.92-28.03,44.32C280.12,356.06,267.37,375.78,267.25,375.7z"/>
			</g>
		</g>
		<g>
			<g>
				<g>
					<circle class="st6" cx="262.53" cy="388.24" r="29.15"/>
				</g>
				<g>
					<g>
						<path class="st7" d="M291.68,388.24c0,0-0.03-0.16-0.05-0.47c-0.02-0.33-0.05-0.79-0.1-1.38c-0.02-0.31-0.04-0.65-0.06-1.02
							c-0.04-0.37-0.12-0.78-0.19-1.22c-0.14-0.88-0.27-1.9-0.61-3c-0.52-2.25-1.57-4.9-3.24-7.72c-1.68-2.8-4.09-5.73-7.38-8.21
							c-3.28-2.46-7.41-4.55-12.18-5.4c-1.2-0.17-2.41-0.41-3.66-0.42c-0.62-0.02-1.25-0.08-1.89-0.07
							c-0.63,0.03-1.27,0.07-1.91,0.1c-0.65,0.01-1.29,0.1-1.93,0.21c-0.64,0.11-1.3,0.18-1.94,0.32c-1.28,0.35-2.6,0.61-3.85,1.13
							c-1.3,0.42-2.52,1.06-3.77,1.66c-0.61,0.33-1.2,0.72-1.8,1.08c-0.62,0.34-1.18,0.77-1.74,1.2c-1.17,0.81-2.2,1.82-3.28,2.79
							c-0.97,1.08-1.99,2.13-2.83,3.35c-1.72,2.39-3.22,5.04-4.13,7.96c-0.94,2.9-1.45,5.98-1.49,9.11
							c0.04,3.14,0.55,6.22,1.49,9.12c0.91,2.92,2.41,5.57,4.13,7.96c0.84,1.22,1.86,2.27,2.83,3.35c1.08,0.97,2.1,1.98,3.28,2.79
							c0.56,0.43,1.13,0.86,1.74,1.2c0.6,0.36,1.19,0.74,1.8,1.08c1.25,0.6,2.47,1.24,3.77,1.66c1.26,0.53,2.58,0.78,3.85,1.13
							c0.65,0.13,1.3,0.21,1.95,0.32c0.64,0.11,1.29,0.2,1.93,0.21c0.64,0.03,1.28,0.07,1.91,0.1c0.63,0.01,1.26-0.05,1.89-0.07
							c1.25-0.01,2.46-0.25,3.66-0.42c4.77-0.85,8.91-2.94,12.18-5.4c3.29-2.48,5.7-5.41,7.38-8.21c1.66-2.81,2.72-5.47,3.23-7.72
							c0.34-1.11,0.47-2.13,0.61-3c0.07-0.44,0.15-0.84,0.19-1.22c0.02-0.37,0.04-0.71,0.06-1.02c0.04-0.59,0.07-1.05,0.1-1.38
							C291.65,388.4,291.68,388.24,291.68,388.24s0.01,0.16,0,0.47c-0.01,0.34-0.03,0.8-0.04,1.39c-0.01,0.31-0.02,0.65-0.04,1.02
							c-0.03,0.38-0.11,0.78-0.16,1.22c-0.13,0.89-0.24,1.91-0.57,3.03c-0.49,2.27-1.53,4.96-3.18,7.82
							c-1.67,2.84-4.09,5.82-7.41,8.36c-3.3,2.51-7.49,4.65-12.33,5.53c-1.21,0.18-2.44,0.43-3.71,0.44
							c-0.63,0.02-1.27,0.09-1.91,0.08c-0.64-0.03-1.29-0.06-1.94-0.1c-0.66-0.01-1.31-0.1-1.96-0.21
							c-0.65-0.11-1.32-0.18-1.98-0.32c-1.3-0.35-2.64-0.61-3.92-1.14c-1.32-0.42-2.56-1.07-3.84-1.68
							c-0.62-0.34-1.22-0.73-1.83-1.09c-0.63-0.35-1.2-0.78-1.78-1.22c-1.2-0.82-2.24-1.84-3.34-2.83
							c-0.99-1.09-2.03-2.16-2.89-3.41c-1.75-2.43-3.28-5.13-4.21-8.1c-0.96-2.95-1.48-6.09-1.52-9.28
							c0.04-3.19,0.56-6.33,1.52-9.28c0.93-2.97,2.46-5.67,4.21-8.1c0.85-1.24,1.89-2.31,2.89-3.4c1.1-0.99,2.14-2.01,3.34-2.83
							c0.58-0.44,1.15-0.87,1.78-1.22c0.62-0.36,1.21-0.75,1.83-1.09c1.28-0.61,2.52-1.26,3.84-1.68c1.28-0.53,2.62-0.79,3.92-1.14
							c0.66-0.13,1.32-0.21,1.98-0.32c0.65-0.11,1.31-0.2,1.96-0.21c0.65-0.03,1.3-0.06,1.94-0.09c0.64-0.01,1.28,0.05,1.91,0.08
							c1.27,0.01,2.5,0.26,3.71,0.44c4.84,0.88,9.02,3.02,12.33,5.53c3.31,2.53,5.74,5.51,7.41,8.36c1.66,2.86,2.69,5.55,3.18,7.82
							c0.32,1.12,0.44,2.15,0.57,3.03c0.06,0.44,0.13,0.85,0.16,1.23c0.01,0.37,0.03,0.72,0.04,1.02c0.02,0.59,0.03,1.05,0.04,1.39
							C291.69,388.08,291.68,388.24,291.68,388.24z"/>
					</g>
				</g>
			</g>
			<g>
				<g>
					<rect x="250.92" y="373.06" class="st7" width="22.89" height="30.35"/>
				</g>
				<g>
					<g>
						<g>
							<path class="st9" d="M263.47,377.91c0,0.14-1.68,0.26-3.76,0.26c-2.08,0-3.76-0.12-3.76-0.26c0-0.14,1.68-0.26,3.76-0.26
								C261.79,377.65,263.47,377.77,263.47,377.91z"/>
						</g>
					</g>
					<g>
						<g>
							<path class="st9" d="M270.1,382.18c0,0.14-3.37,0.26-7.52,0.26c-4.15,0-7.52-0.12-7.52-0.26c0-0.14,3.36-0.26,7.52-0.26
								C266.73,381.92,270.1,382.04,270.1,382.18z"/>
						</g>
					</g>
					<g>
						<g>
							<path class="st9" d="M270.1,384.78c0,0.14-3.37,0.26-7.52,0.26c-4.15,0-7.52-0.12-7.52-0.26s3.36-0.26,7.52-0.26
								C266.73,384.51,270.1,384.63,270.1,384.78z"/>
						</g>
					</g>
					<g>
						<g>
							<path class="st9" d="M270.1,387.37c0,0.14-3.37,0.26-7.52,0.26c-4.15,0-7.52-0.12-7.52-0.26s3.36-0.26,7.52-0.26
								C266.73,387.11,270.1,387.23,270.1,387.37z"/>
						</g>
					</g>
					<g>
						<g>
							<path class="st9" d="M270.1,389.96c0,0.14-3.37,0.26-7.52,0.26c-4.15,0-7.52-0.12-7.52-0.26s3.36-0.26,7.52-0.26
								C266.73,389.7,270.1,389.82,270.1,389.96z"/>
						</g>
					</g>
					<g>
						<g>
							<path class="st9" d="M270.1,392.56c0,0.14-3.37,0.26-7.52,0.26c-4.15,0-7.52-0.12-7.52-0.26c0-0.14,3.36-0.26,7.52-0.26
								C266.73,392.3,270.1,392.42,270.1,392.56z"/>
						</g>
					</g>
					<g>
						<g>
							<path class="st9" d="M270.1,395.15c0,0.14-3.37,0.26-7.52,0.26c-4.15,0-7.52-0.12-7.52-0.26c0-0.14,3.36-0.26,7.52-0.26
								C266.73,394.89,270.1,395.01,270.1,395.15z"/>
						</g>
					</g>
					<g>
						<g>
							<path class="st9" d="M270.1,397.75c0,0.14-3.37,0.26-7.52,0.26c-4.15,0-7.52-0.12-7.52-0.26c0-0.14,3.36-0.26,7.52-0.26
								C266.73,397.49,270.1,397.61,270.1,397.75z"/>
						</g>
					</g>
				</g>
			</g>
		</g>
	</g>
	<g>
		<path class="st6" d="M514.18,288.09H256.11c-13.14,0-23.79-10.65-23.79-23.79v-2.61c0-13.14,10.65-23.79,23.79-23.79h258.07
			c13.14,0,23.79,10.65,23.79,23.79v2.61C537.97,277.44,527.32,288.09,514.18,288.09z"/>
	</g>
	<g>
		<path class="st8" d="M470.25,237.45v50.64h42.7c13.99,0,25.32-11.34,25.32-25.32l0,0c0-13.99-11.34-25.32-25.32-25.32H470.25z"/>
	</g>
	<g>
		<g>
			<g>
				<path class="st6" d="M509.99,261.36c-0.07,0.01-0.01-0.95-0.43-2.59c-0.42-1.6-1.49-3.95-3.9-5.77
					c-1.19-0.89-2.69-1.64-4.42-1.94c-1.72-0.29-3.65-0.23-5.49,0.47c-0.93,0.32-1.82,0.81-2.64,1.43c-0.83,0.6-1.58,1.35-2.2,2.22
					c-1.28,1.71-2.01,3.9-2.03,6.17c0.02,2.26,0.74,4.46,2.03,6.17c0.62,0.87,1.37,1.62,2.2,2.22c0.82,0.62,1.71,1.1,2.64,1.43
					c1.84,0.7,3.78,0.76,5.49,0.47c1.73-0.3,3.23-1.05,4.42-1.94c2.41-1.81,3.48-4.17,3.9-5.77
					C509.98,262.31,509.92,261.36,509.99,261.36c0,0,0.13,0.96-0.24,2.63c-0.37,1.65-1.41,4.09-3.87,6.01
					c-1.22,0.94-2.77,1.74-4.57,2.07c-1.78,0.32-3.81,0.28-5.74-0.45c-0.97-0.33-1.91-0.84-2.77-1.48
					c-0.87-0.63-1.66-1.41-2.32-2.32c-1.35-1.79-2.12-4.1-2.14-6.47c0.02-2.37,0.79-4.68,2.14-6.47c0.65-0.91,1.45-1.69,2.32-2.32
					c0.86-0.64,1.8-1.15,2.77-1.48c1.93-0.72,3.95-0.77,5.74-0.45c1.8,0.33,3.35,1.13,4.57,2.07c2.46,1.92,3.51,4.36,3.88,6.01
					C510.12,260.41,509.99,261.36,509.99,261.36z"/>
			</g>
		</g>
		<g>
			<g>
				<path class="st6" d="M519.92,276.32c-0.08,0.12-2.84-1.72-6.16-4.09c-3.32-2.38-5.94-4.4-5.86-4.52
					c0.08-0.12,2.84,1.71,6.16,4.09C517.38,274.18,520,276.2,519.92,276.32z"/>
			</g>
		</g>
	</g>
	<g>
		<rect x="261.38" y="258.29" class="st2" width="186.85" height="10.74"/>
	</g>
	<g>
		<g>
			<path class="st7" d="M514.18,288.09c0,0,0.59-0.05,1.73-0.11c0.57,0,1.28-0.13,2.11-0.26c0.84-0.09,1.79-0.37,2.87-0.65
				c2.12-0.66,4.71-1.73,7.33-3.68c0.33-0.24,0.66-0.49,0.99-0.75c0.32-0.27,0.63-0.57,0.96-0.87c0.67-0.57,1.27-1.25,1.9-1.95
				c0.65-0.68,1.16-1.51,1.78-2.29c0.26-0.43,0.52-0.86,0.79-1.3l0.4-0.66l0.34-0.71c0.99-1.87,1.64-4.03,2.1-6.32
				c0.09-0.58,0.18-1.17,0.27-1.76c0.03-0.6,0.06-1.21,0.1-1.82c0.05-1.23,0.04-2.5,0-3.78c-0.07-5.12-2-10.72-6.01-15.2
				c-3.95-4.48-10.08-7.7-16.9-7.87c-6.82-0.07-14.06-0.01-21.64-0.02c-60.7,0.02-144.54,0.05-237.15,0.08
				c-5.74,0.01-11.38,2.17-15.61,5.94c-4.24,3.74-7.07,9.01-7.72,14.56c-0.14,0.69-0.12,1.39-0.17,2.08
				c-0.05,0.69-0.06,1.39-0.05,2.1c-0.02,1.41,0.04,2.79,0.17,4.17c0.28,2.76,1.14,5.43,2.37,7.88c2.48,4.9,6.66,8.86,11.63,11
				c2.48,1.07,5.13,1.69,7.8,1.87c1.33,0.1,2.68,0.08,4.03,0.08c1.35,0,2.69,0,4.03,0c5.36,0,10.67,0,15.92,0
				c10.5,0,20.79,0.01,30.82,0.01c40.13,0.02,76.27,0.04,106.61,0.06c30.34,0.03,54.9,0.06,71.88,0.08
				c8.48,0.02,15.07,0.04,19.54,0.05c2.23,0.01,3.93,0.02,5.08,0.03C513.59,288.07,514.18,288.09,514.18,288.09
				s-0.59,0.02-1.73,0.03c-1.15,0.01-2.85,0.01-5.08,0.03c-4.47,0.01-11.06,0.03-19.54,0.05c-16.98,0.02-41.53,0.05-71.88,0.08
				c-30.35,0.02-66.49,0.03-106.61,0.06c-10.03,0-20.31,0.01-30.82,0.01c-5.25,0-10.56,0-15.92,0c-1.34,0-2.68,0-4.03,0
				c-1.35,0-2.69,0.02-4.06-0.08c-2.72-0.18-5.43-0.82-7.97-1.91c-5.08-2.19-9.35-6.24-11.89-11.24c-1.26-2.5-2.13-5.23-2.42-8.05
				c-0.13-1.41-0.19-2.83-0.17-4.23c-0.01-0.7,0-1.41,0.05-2.12c0.05-0.71,0.03-1.42,0.17-2.13c0.67-5.67,3.56-11.06,7.89-14.88
				c4.31-3.85,10.09-6.06,15.95-6.07c92.6,0.03,176.44,0.06,237.15,0.08c7.59,0.02,14.81-0.03,21.65,0.06
				c6.92,0.19,13.12,3.47,17.11,8.01c4.04,4.54,5.98,10.22,6.04,15.39c0.04,1.3,0.04,2.55-0.01,3.79c-0.03,0.62-0.07,1.23-0.1,1.84
				c-0.09,0.6-0.18,1.19-0.27,1.78c-0.46,2.31-1.13,4.49-2.14,6.37c-0.12,0.24-0.23,0.48-0.35,0.71l-0.41,0.67
				c-0.27,0.44-0.54,0.88-0.8,1.31c-0.62,0.79-1.14,1.62-1.8,2.3c-0.63,0.7-1.24,1.38-1.92,1.95c-0.33,0.29-0.64,0.59-0.97,0.87
				c-0.34,0.25-0.68,0.5-1.01,0.75c-2.65,1.94-5.25,3.01-7.39,3.65c-1.09,0.27-2.04,0.55-2.88,0.63c-0.84,0.13-1.54,0.24-2.12,0.24
				C514.77,288.08,514.18,288.09,514.18,288.09z"/>
		</g>
	</g>
</g>
<g id="Character">
	<g>
		<g>
			<path class="st10" d="M381.75,256.89c-0.91-1.06-1-1.96,1.05-2.14c4.51-0.41,7.84-2.38,8.36-3.52c0.52-1.14-0.91-2.25-2.13-1.57
				c-0.99,0.55-2.93,0.98-4.39,1.24c-1.21,0.22-2.45,0.24-3.66,0.05c-1.05-0.16-1.97-0.34-2.8-0.52c0,0-4.77-1.03-6.84-2.64
				l-10.1,10.79l4.74,5.35c0,0,2.26,3.38,6.32,2.98c4.06-0.4,9.53-3.32,9.53-3.32c0.74-1.13,7.28,2.9,9.39,4.41
				c2.08,1.5,3.66,1.13,3.58-0.32c-0.05-0.99-6.39-5.78-8.51-7.22C385.13,259.68,382.85,258.17,381.75,256.89"/>
		</g>
	</g>
	<g>
		<g>
			<path class="st11" d="M375.82,266.26c0.01,0.06-0.29,0.19-0.81,0.18c-0.52-0.01-1.24-0.21-1.88-0.7
				c-0.64-0.48-1.03-1.13-1.18-1.62c-0.16-0.5-0.11-0.82-0.05-0.83c0.14-0.03,0.39,1.19,1.55,2.03
				C374.57,266.21,375.81,266.12,375.82,266.26z"/>
		</g>
	</g>
	<g>
		<g>
			<path class="st11" d="M379.82,264.69c0.01,0.06-0.29,0.17-0.79,0.14c-0.49-0.03-1.18-0.24-1.78-0.71
				c-0.6-0.47-0.98-1.08-1.13-1.56c-0.15-0.47-0.12-0.79-0.06-0.8c0.14-0.03,0.41,1.12,1.5,1.94
				C378.63,264.56,379.82,264.54,379.82,264.69z"/>
		</g>
	</g>
	<path class="st7" d="M390.71,152.43c0.42,8.86,11.23,21,19.27,22.96c4.23,1.03,9.09,0.55,12.44,3.39
		c5.74,4.87,2.38,14.96,6.26,21.5c2.38,4.02,7.11,5.99,9.79,9.8c4.45,6.34,1.46,15.92-4.61,20.64c-6.07,4.72-14.17,5.62-21.78,5.43
		c-16.75-0.43-33.9-5.76-46-17.63c-5.69-5.58-27.94-22.79-20.18-63.6"/>
	<path class="st8" d="M451.15,215.83l-63.67-18.9c-5.28-2.24-9.27-2.79-9.27-2.79l-21.5,0.14c-2.92,0-5.67,0.63-8.25,1.72
		l-57.96,19.25c-4.29,1.36-7.25,5.76-7.25,10.77v0c0,6.18,4.45,11.18,9.94,11.18h26.76c-0.08,0.25-0.12,0.39-0.12,0.39l93.08,0.35
		c0-0.01,0-0.02,0-0.04l35.53,0.08c5.49,0,9.94-5.06,9.94-11.29C458.4,221.65,455.44,217.2,451.15,215.83z"/>
	<g>
		<g>
			<path class="st7" d="M438.39,222.72c0,0.02-0.2,0.01-0.58-0.03c-0.43-0.05-0.97-0.11-1.64-0.19c-1.42-0.18-3.48-0.41-6.03-0.65
				c-5.1-0.5-12.16-0.94-19.97-0.84c-7.81,0.11-14.87,0.73-19.95,1.36c-2.54,0.31-4.59,0.6-6.01,0.81c-0.66,0.09-1.2,0.17-1.63,0.23
				c-0.37,0.05-0.57,0.06-0.58,0.04c0-0.02,0.19-0.07,0.56-0.15c0.43-0.09,0.96-0.19,1.62-0.33c1.41-0.28,3.46-0.62,6-0.98
				c5.08-0.72,12.15-1.41,19.99-1.52c7.83-0.1,14.92,0.4,20.02,0.99c2.55,0.29,4.61,0.58,6.02,0.82c0.66,0.11,1.2,0.21,1.63,0.28
				C438.2,222.65,438.39,222.7,438.39,222.72z"/>
		</g>
	</g>
	<g class="st12">
		<g>
			<path class="st6" d="M423.45,207.25c0.01,0.01-0.05,0.08-0.18,0.21c-0.15,0.15-0.33,0.35-0.56,0.59
				c-0.5,0.51-1.24,1.26-2.25,2.18c-1.01,0.92-2.27,2.01-3.87,3.12c-1.6,1.08-3.56,2.21-5.95,2.83c-2.37,0.67-5.17,0.6-7.96-0.16
				c-2.8-0.75-5.56-2.16-8.38-3.7c-2.83-1.5-5.75-3.25-9.07-4.25c-3.28-1.09-7.04-1.05-10.37,0.53c-3.35,1.51-6.2,3.81-9.32,5.47
				c-0.77,0.43-1.59,0.76-2.38,1.12c-0.82,0.29-1.62,0.61-2.44,0.81c-1.63,0.48-3.29,0.72-4.9,0.85
				c-6.51,0.47-12.33-1.65-16.29-4.48c-2-1.43-3.52-3.05-4.92-4.37c-1.39-1.34-2.66-2.4-3.81-3.11c-2.32-1.43-3.94-1.37-3.9-1.46
				c0,0,0.38-0.01,1.09,0.13c0.71,0.13,1.74,0.46,2.92,1.16c1.18,0.7,2.49,1.75,3.9,3.08c1.42,1.31,2.95,2.9,4.93,4.28
				c3.93,2.75,9.65,4.79,16.04,4.3c1.58-0.13,3.21-0.37,4.8-0.85c0.81-0.2,1.59-0.52,2.39-0.8c0.77-0.35,1.57-0.68,2.32-1.1
				c3.06-1.63,5.91-3.95,9.35-5.5c3.42-1.64,7.39-1.67,10.73-0.55c3.4,1.04,6.33,2.81,9.15,4.32c2.81,1.55,5.53,2.95,8.26,3.71
				c2.72,0.76,5.42,0.84,7.75,0.22c2.34-0.58,4.28-1.67,5.87-2.72c1.6-1.07,2.87-2.14,3.9-3.03c1.02-0.89,1.79-1.62,2.31-2.11
				c0.24-0.23,0.44-0.41,0.6-0.55C423.37,207.3,423.44,207.24,423.45,207.25z"/>
		</g>
	</g>
	<g class="st13">
		<polygon points="324.51,222.59 364.76,230.18 360.11,237.75 358.88,237.77 		"/>
	</g>
	<g class="st12">
		<g>
			<path class="st6" d="M446.34,214.64c0.02,0,0.02,0.21,0.02,0.62c-0.01,0.4-0.05,1-0.18,1.76c-0.25,1.51-0.87,3.72-2.42,6.02
				c-1.53,2.29-4.11,4.62-7.6,5.83c-1.73,0.61-3.66,0.95-5.66,0.89c-2-0.08-4.03-0.53-6.04-1.1c-2.02-0.57-3.95-1.2-5.86-1.58
				c-1.91-0.41-3.79-0.49-5.56-0.29c-3.55,0.43-6.55,1.9-8.68,3.55c-2.18,1.63-3.5,3.44-4.31,4.71c-0.19,0.32-0.36,0.61-0.52,0.87
				c-0.12,0.25-0.23,0.47-0.33,0.66c-0.18,0.36-0.29,0.54-0.3,0.54c-0.02-0.01,0.06-0.21,0.21-0.58c0.09-0.2,0.18-0.43,0.29-0.69
				c0.14-0.27,0.31-0.57,0.48-0.9c0.76-1.32,2.07-3.2,4.26-4.9c2.14-1.72,5.19-3.27,8.85-3.74c1.82-0.23,3.78-0.15,5.72,0.27
				c1.95,0.39,3.9,1.02,5.9,1.58c2,0.57,3.98,1.02,5.92,1.1c1.93,0.07,3.81-0.25,5.49-0.83c3.39-1.15,5.93-3.38,7.45-5.59
				c1.56-2.22,2.22-4.37,2.53-5.85C446.29,215.49,446.28,214.63,446.34,214.64z"/>
		</g>
	</g>
	<g>
		<path class="st8" d="M290.56,235.92c0,0,72.76,32.1,72.38,31.38c-0.38-0.73,11.55-21.78,11.55-21.78l-58.95-29.13L290.56,235.92z"
			/>
	</g>
	<g>
		<g>
			<path class="st7" d="M323.96,220.53c0.02-0.03,0.55,0.19,1.5,0.63c1.03,0.48,2.38,1.12,4,1.89c3.37,1.61,8.01,3.87,13.12,6.4
				c5.11,2.53,9.73,4.84,13.06,6.54c1.6,0.83,2.92,1.51,3.93,2.04c0.92,0.49,1.43,0.78,1.41,0.81c-0.02,0.03-0.55-0.19-1.5-0.63
				c-1.03-0.48-2.38-1.12-4-1.89c-3.37-1.61-8.01-3.88-13.13-6.4c-5.11-2.53-9.73-4.84-13.06-6.54c-1.6-0.83-2.92-1.51-3.93-2.04
				C324.45,220.85,323.95,220.56,323.96,220.53z"/>
		</g>
	</g>
	<g class="st12">
		<g>
			<path class="st6" d="M339.94,230.27c0,0-0.04,0.83-0.68,2.16c-0.62,1.32-2.02,3.06-4.34,4.34c-1.15,0.63-2.51,1.16-4.04,1.44
				c-1.53,0.28-3.2,0.29-4.92,0.06c-3.46-0.44-7.03-1.89-10.61-3.56c-3.58-1.68-7-3.29-10.32-4.07c-1.65-0.4-3.26-0.59-4.77-0.55
				c-1.5,0.04-2.9,0.31-4.11,0.7c-2.45,0.78-4.15,2.09-5.08,3.18c-0.94,1.08-1.26,1.84-1.32,1.81c0,0,0.25-0.79,1.16-1.94
				c0.9-1.15,2.62-2.55,5.12-3.4c1.24-0.42,2.67-0.72,4.22-0.78c1.55-0.06,3.2,0.12,4.89,0.52c3.39,0.77,6.85,2.39,10.43,4.07
				c3.57,1.67,7.08,3.1,10.46,3.56c1.68,0.24,3.3,0.24,4.78-0.01c1.48-0.25,2.81-0.75,3.94-1.34c2.27-1.2,3.68-2.84,4.33-4.11
				C339.76,231.07,339.88,230.25,339.94,230.27z"/>
		</g>
	</g>
	<g class="st12">
		<g>
			<path class="st6" d="M370.83,252.28c-0.01,0.1-1.61-0.17-4.21-0.21c-1.3-0.03-2.85,0.05-4.55,0.23c-1.7,0.21-3.56,0.55-5.47,1.08
				c-1.9,0.55-3.66,1.23-5.22,1.94c-1.55,0.74-2.91,1.48-4,2.19c-2.19,1.4-3.41,2.46-3.48,2.39c-0.02-0.03,0.27-0.31,0.81-0.8
				c0.54-0.5,1.38-1.15,2.46-1.9c1.08-0.75,2.43-1.55,3.99-2.32c1.57-0.75,3.35-1.45,5.29-2.01c1.94-0.54,3.83-0.87,5.55-1.06
				c1.73-0.16,3.3-0.2,4.61-0.12c1.31,0.07,2.37,0.19,3.09,0.33C370.44,252.15,370.84,252.24,370.83,252.28z"/>
		</g>
	</g>
	<g class="st13">
		<path d="M379.8,194.01c-1.2,3.37,0.6,6.99,2.36,10.11c1.22,2.17,2.46,4.36,4.22,6.12c1.76,1.76,4.13,3.05,6.62,2.97
			c3.27-0.11,6.19-2.52,9.45-2.33c2.22,0.13,4.17,1.44,6.01,2.68c3.19,2.16,6.47,4.26,10.09,5.59c3.62,1.32,7.65,1.82,11.34,0.71
			c3.69-1.11,6.95-4.02,7.85-7.77"/>
	</g>
	<g>
		<g>
			<g>
				<path class="st10" d="M380.07,193.08c0.17-3.92,0.38-7.46,0.38-7.46s8.75-1.1,9.13-10.04c0.38-8.94-0.51-29.51-0.51-29.51
					l-16.11-7.74l-17.34,13.97l2.72,41.04c0.39,5.91,5.44,10.43,11.36,10.15l0,0C375.33,203.22,379.83,198.71,380.07,193.08z"/>
			</g>
			<g>
				<g>
					<path class="st7" d="M387.56,162.22c0.01,0.63-0.48,1.15-1.09,1.16c-0.61,0.01-1.12-0.49-1.13-1.12
						c-0.01-0.63,0.48-1.15,1.09-1.16C387.04,161.09,387.55,161.59,387.56,162.22z"/>
				</g>
				<g>
					<g>
						<path class="st7" d="M388.64,159.84c-0.14,0.15-0.98-0.55-2.18-0.6c-1.2-0.06-2.09,0.56-2.22,0.4
							c-0.06-0.07,0.08-0.35,0.47-0.63c0.38-0.28,1.03-0.55,1.78-0.51c0.75,0.03,1.37,0.35,1.73,0.67
							C388.59,159.48,388.71,159.77,388.64,159.84z"/>
					</g>
				</g>
			</g>
			<g>
				<g>
					<path class="st7" d="M374.28,162.22c0.01,0.63-0.48,1.15-1.09,1.16c-0.61,0.01-1.12-0.49-1.13-1.12
						c-0.01-0.63,0.48-1.15,1.09-1.16C373.76,161.09,374.27,161.59,374.28,162.22z"/>
				</g>
				<g>
					<g>
						<path class="st7" d="M375.36,160.07c-0.14,0.15-0.98-0.55-2.18-0.6c-1.2-0.06-2.09,0.56-2.22,0.4
							c-0.06-0.07,0.08-0.35,0.47-0.63c0.38-0.28,1.03-0.55,1.78-0.51c0.75,0.03,1.37,0.35,1.73,0.67
							C375.31,159.71,375.43,160,375.36,160.07z"/>
					</g>
				</g>
			</g>
			<g>
				<g>
					<path class="st7" d="M379.86,170.38c0-0.07,0.74-0.18,1.95-0.3c0.31-0.02,0.6-0.08,0.65-0.3c0.08-0.23-0.05-0.59-0.19-0.98
						c-0.28-0.81-0.56-1.65-0.87-2.53c-1.2-3.61-2.07-6.57-1.93-6.62c0.14-0.05,1.22,2.84,2.42,6.44c0.29,0.89,0.57,1.74,0.83,2.55
						c0.11,0.38,0.3,0.81,0.14,1.29c-0.09,0.24-0.31,0.41-0.51,0.46c-0.2,0.06-0.37,0.05-0.52,0.06
						C380.62,170.48,379.87,170.45,379.86,170.38z"/>
				</g>
			</g>
			<g>
				<path class="st6" d="M375.92,171.61c-1.23-0.81,3.38,1.99,5.83,1.95c0,0-1.47,2.25-3.95,1.23
					C375.22,173.72,375.92,171.61,375.92,171.61z"/>
			</g>
			<g>
				<path class="st11" d="M380.45,185.62c0,0-5.86,0.17-11.59-3.79c0,0,2.72,6.51,11.44,5.99L380.45,185.62z"/>
			</g>
			<g>
				<path class="st7" d="M346.22,161.1L346.22,161.1c-0.03,7.73-2.06,28.18,12.04,31.02l-0.51-28.16c0,0,13.65-6.44,15.95-19.84
					l0.08,0.08c0.87,2.02,2.43,6.37,1.49,9.91l12.78,3.15l1.47,1.35c0,0,4.55-9.97-4.23-19.02c-8.78-9.05-16.29-2.49-20.99-3.06
					c-3.13-0.38-13.99-0.3-18.41,18.39L346.22,161.1z"/>
			</g>
		</g>
	</g>
	<g>
		<g>
			<g>
				<path class="st10" d="M358.1,164.27c-1.19-0.74-2.82-0.13-3.76,0.9c-1.49,1.62-1.75,4.25-0.61,6.13
					c1.14,1.88,3.59,2.87,5.72,2.3"/>
			</g>
			<g>
				<g>
					<path class="st11" d="M357.83,170.93c0,0.06-0.4,0.13-1.02-0.04c-0.59-0.16-1.52-0.63-1.87-1.66c-0.17-0.5-0.14-1.04,0.05-1.46
						c0.19-0.42,0.49-0.71,0.76-0.89c0.56-0.36,0.99-0.34,1-0.28c0.02,0.08-0.35,0.19-0.77,0.57c-0.43,0.36-0.83,1.1-0.55,1.89
						c0.26,0.79,0.98,1.25,1.5,1.48C357.46,170.78,357.83,170.85,357.83,170.93z"/>
				</g>
			</g>
		</g>
		<g>
			<path class="st14" d="M356.66,172.69c-0.65,0.15-0.98,1.05-0.59,1.58c0.39,0.54,1.34,0.5,1.69-0.07
				c0.35-0.57-0.06-1.43-0.71-1.53"/>
		</g>
	</g>
	<path class="st10" d="M382.56,237.99v-14.69c0,0-21.81,4.52-22.21,14.51L382.56,237.99z"/>
	<path class="st7" d="M380.29,191.53c0.36,4.47,2.43,8.79,5.7,11.86c3.27,3.07,7.71,4.88,12.19,4.95c3.22,0.06,6.61-0.71,9.55,0.61
		c2.56,1.14,4.2,3.62,6.21,5.57c4.72,4.57,12.06,6.23,18.29,4.13c2.64-0.89,6.84-2.78,7.33-5.53c0.37-2.09-2.18-4.17-3.68-5.66
		c-1.51-1.5-3.45-2.46-5.37-3.36c-15.54-7.3-32.21-12.6-49.35-13.51"/>
</g>
</svg>
